<svg xmlns="http://www.w3.org/2000/svg" width="20" height="20" viewBox="0 0 20 20" fill="none">
  <path d="M13.4063 3.90622C13.5816 3.72475 13.7912 3.58 14.023 3.48043C14.2548 3.38085 14.5042 3.32844 14.7564 3.32624C15.0087 3.32405 15.2589 3.37212 15.4924 3.46766C15.7259 3.56319 15.9381 3.70427 16.1165 3.88267C16.2949 4.06106 16.4359 4.2732 16.5315 4.50671C16.627 4.74021 16.6751 4.9904 16.6729 5.24268C16.6707 5.49496 16.6183 5.74428 16.5187 5.97609C16.4191 6.2079 16.2744 6.41755 16.0929 6.59282L15.3396 7.34617L12.653 4.65957L13.4063 3.90622ZM11.3097 6.00287L3.34961 13.9629V16.6495H6.03621L13.9972 8.68947L11.3087 6.00287H11.3097Z" fill="#01818C"/>
</svg>