<svg xmlns="http://www.w3.org/2000/svg" width="217" height="128" viewBox="0 0 117 128" fill="none">
  <path d="M22.9306 87.4549L15.1733 101.728L15.8121 67.0715C15.958 64.8699 16.701 62.7497 17.9613 60.9386C18.4958 60.1257 19.122 59.377 19.8277 58.7073C20.7403 57.9361 21.9586 56.9596 22.7937 56.631C23.8295 56.2204 23.8615 54.783 22.8986 54.532C21.9358 54.281 19.0519 55.3397 16.5422 57.9133C14.0325 60.4869 14.5983 54.9244 14.7717 52.8938C14.9451 50.8633 15.1778 44.5661 14.5938 44.0368C13.7405 43.2565 12.7229 44.0368 12.5997 46.0811C12.4765 48.1254 11.6871 54.1806 10.6056 54.0666C9.52413 53.9525 10.5691 43.6307 10.5691 43.6307C10.5691 43.6307 11.144 41.4495 9.91656 41.2761C7.69888 40.9613 7.42966 51.9949 7.42966 53.049C7.42966 53.7791 6.26606 53.697 6.30713 52.9121C6.3482 52.1272 7.55743 42.6268 5.30325 42.2891C3.57382 42.029 4.99752 51.3652 3.65596 53.2406C2.3144 55.1161 3.30004 46.0309 1.6345 45.8484C1.01848 45.7799 0.543912 45.8164 0.721874 51.0823C0.822263 53.916 2.09081 58.1506 1.86265 63.6172L1.8079 65.0317C0.498281 75.2577 -5.40183 128.906 14.9086 127.451C14.9086 127.451 30.3183 125.311 38.8832 97.2656L22.9306 87.4549Z" fill="#FFBE9D"/>
  <path d="M5.54883 61.2662C5.54883 61.3164 5.89106 61.3575 6.39757 61.6222C7.08036 61.9743 7.61335 62.5608 7.89884 63.274L8.05854 63.6801L8.23651 63.2831C8.49236 62.7166 8.84959 62.2017 9.29059 61.7636C10.1402 60.8993 11.2314 60.3123 12.4209 60.0798C13.3335 59.8927 13.9267 59.9977 13.9358 59.9247C13.4368 59.7406 12.8964 59.6995 12.3753 59.806C11.0951 59.972 9.90855 60.5653 9.00767 61.4898C8.53883 61.9642 8.16413 62.5232 7.9034 63.1371H8.24107C8.07745 62.7494 7.83882 62.3978 7.5389 62.1026C7.23898 61.8073 6.88367 61.5743 6.49339 61.4168C6.20265 61.2672 5.87169 61.2144 5.54883 61.2662Z" fill="#EB996E"/>
  <path d="M115.569 94.1211L124.198 110.375L132.079 125.534H114.26L103.217 102.777" fill="#FFBE9D"/>
  <path d="M47.9908 125.532C49.6882 119.751 48.5748 118.838 46.7496 113.098L42.8253 100.777L34.2375 113.463L15.9805 98.7877L22.0357 85.1303C33.3477 59.4947 51.696 61.3154 51.696 61.3154L75.0774 56.8526C75.0774 56.8526 90.0353 55.4837 99.7183 64.2723C102.876 67.1379 117.218 92.956 117.218 92.956L99.5951 105.304L95.2738 97.9344L94.0783 107.95C93.1383 113.426 93.1976 120.394 95.2738 125.532" fill="#455A64"/>
  <path d="M45.9531 70.042C45.9531 70.1059 42.1064 70.9546 37.3379 71.9357C32.5694 72.9168 28.668 73.6606 28.668 73.5967C28.668 73.5328 32.5101 72.684 37.2831 71.703C42.0562 70.7219 45.9394 69.969 45.9531 70.042Z" fill="#FAFAFA"/>
  <path d="M97.3642 62.6586C97.3642 62.7271 93.5905 63.48 88.9041 64.3424C84.2178 65.2048 80.4122 65.8574 80.3985 65.7889C80.3848 65.7205 84.1767 64.9721 88.8631 64.1097C93.5494 63.2473 97.355 62.5947 97.3642 62.6586Z" fill="#FAFAFA"/>
  <path d="M104.569 71.0035C104.569 71.0673 98.6961 72.3724 91.4225 73.9558C84.1489 75.5392 78.2442 76.7393 78.2305 76.6937C78.2168 76.648 84.0987 75.3247 91.3723 73.7413C98.6459 72.1579 104.537 70.9533 104.569 71.0035Z" fill="#FAFAFA"/>
  <path d="M111.779 83.8672L111.532 83.9174L110.811 84.0452L108.023 84.5015L97.7698 86.1807L63.9206 91.6108C50.6876 93.7053 38.7185 95.5716 30.0394 96.8766C25.7045 97.5337 22.1909 98.0448 19.7587 98.3825C18.5449 98.5467 17.6004 98.67 16.957 98.7384C16.6364 98.8082 16.3068 98.8267 15.9805 98.7932C16.3067 98.788 16.632 98.7544 16.9524 98.6928L19.745 98.2912L30.0166 96.7124L63.8841 91.3735L97.7287 86.0119L107.996 84.4056L110.788 83.9813L111.518 83.8763L111.779 83.8672Z" fill="#FAFAFA"/>
  <path d="M94.5575 103.846C94.5575 103.91 83.6882 105.384 70.268 107.132C56.8479 108.879 45.9603 110.244 45.9512 110.18C45.9421 110.116 56.816 108.647 70.2407 106.894C83.6654 105.142 94.5301 103.782 94.5575 103.846Z" fill="#FAFAFA"/>
  <path d="M92.4806 120.928C92.4806 120.996 82.752 120.987 70.7602 120.928C58.7683 120.869 49.0352 120.745 49.0352 120.677C49.0352 120.608 58.7592 120.618 70.7602 120.677C82.7612 120.736 92.4806 120.864 92.4806 120.928Z" fill="#FAFAFA"/>
  <path d="M52.6392 80.6011C52.5368 80.6345 52.4313 80.6574 52.3243 80.6695L51.4117 80.8201L48.0806 81.3494C45.2652 81.8057 41.382 82.4491 37.1291 83.2477C32.8763 84.0462 28.9976 84.8447 26.2096 85.4425L22.8922 86.1498L21.9796 86.3369C21.8753 86.3653 21.7682 86.3822 21.6602 86.3871C21.7586 86.345 21.861 86.3129 21.9659 86.2912L22.8922 86.0585C23.6679 85.8669 24.7905 85.6022 26.1776 85.2782C28.9566 84.6348 32.8079 83.8135 37.0881 82.9967C41.3683 82.1799 45.256 81.5776 48.0761 81.1714C49.4906 80.9661 50.6314 80.811 51.4254 80.7151L52.338 80.6102C52.4378 80.5971 52.5387 80.5941 52.6392 80.6011Z" fill="#FAFAFA"/>
  <path d="M72.7077 6.96484C72.1465 13.7274 81.2088 18.5278 80.4011 25.263C80.1775 27.1338 79.2056 29.169 80.1958 30.7752C81.3822 32.7054 84.2707 32.2993 86.3788 33.1343C88.9752 34.161 90.3031 37.2868 89.9107 40.0475C89.5183 42.8082 87.7295 45.1947 85.6259 47.0336C82.305 49.937 78.1538 51.7204 73.7618 52.1306C71.7267 52.3131 69.6002 52.1671 67.7841 51.218C65.968 50.2688 64.5306 48.439 64.5215 46.3948" fill="#263238"/>
  <path d="M73.6024 60.7298C72.3977 54.9574 71.2341 48.8657 71.2341 48.8657C71.2341 48.8657 78.4028 46.0548 77.8871 36.0387C77.3989 26.4836 71.3528 5.46582 71.3528 5.46582C59.7396 3.37135 47.6884 8.95661 41.875 19.1552L52.4295 65.8541C53.6524 71.2751 59.2742 74.5241 65.083 73.1871C70.9375 71.7908 74.7477 66.2283 73.6024 60.7298Z" fill="#FFBE9D"/>
  <path d="M72.1386 22.7215C72.209 23.0449 72.1507 23.3829 71.976 23.664C71.8014 23.9451 71.5242 24.1472 71.2032 24.2274C71.0477 24.2738 70.8845 24.2885 70.7232 24.2708C70.5619 24.253 70.4058 24.2031 70.2641 24.124C70.1225 24.0448 69.9981 23.9381 69.8984 23.8101C69.7987 23.6821 69.7257 23.5354 69.6836 23.3786C69.6111 23.0577 69.6657 22.7212 69.8358 22.4397C70.0059 22.1581 70.2785 21.9533 70.5963 21.8682C70.7535 21.819 70.9191 21.8022 71.083 21.8188C71.247 21.8354 71.4058 21.8851 71.55 21.9649C71.6942 22.0447 71.8207 22.1528 71.9219 22.2829C72.023 22.413 72.0968 22.5622 72.1386 22.7215Z" fill="#263238"/>
  <path d="M73.5431 21.469C73.4245 21.6652 72.3339 21.1679 70.9969 21.469C69.6599 21.7702 68.8203 22.6326 68.6423 22.5003C68.5556 22.441 68.6423 22.117 69.0119 21.7154C69.5002 21.1935 70.1376 20.835 70.8372 20.6887C71.5315 20.5386 72.2556 20.6137 72.9043 20.9032C73.388 21.1177 73.5887 21.3823 73.5431 21.469Z" fill="#263238"/>
  <path d="M58.4829 25.8584C58.5554 26.1793 58.5008 26.5158 58.3307 26.7974C58.1606 27.079 57.888 27.2838 57.5702 27.3688C57.4144 27.4145 57.2511 27.4286 57.0898 27.4102C56.9285 27.3919 56.7724 27.3415 56.6309 27.262C56.4893 27.1825 56.3651 27.0755 56.2654 26.9473C56.1658 26.8191 56.0928 26.6723 56.0507 26.5155C55.9784 26.1952 56.033 25.8593 56.2032 25.5785C56.3734 25.2976 56.6459 25.0937 56.9633 25.0097C57.1188 24.9633 57.282 24.9485 57.4433 24.9663C57.6046 24.984 57.7607 25.034 57.9024 25.1131C58.044 25.1922 58.1684 25.2989 58.2681 25.427C58.3678 25.555 58.4408 25.7017 58.4829 25.8584Z" fill="#263238"/>
  <path d="M59.8497 24.5889C59.7311 24.7805 58.6405 24.2832 57.3035 24.5889C55.9665 24.8946 55.1315 25.7525 54.9489 25.6202C54.8622 25.5654 54.949 25.2369 55.3186 24.8353C55.8088 24.316 56.4454 23.9579 57.1438 23.8086C57.8397 23.6603 58.5647 23.7354 59.2155 24.0231C59.7174 24.2375 59.9227 24.4976 59.8497 24.5889Z" fill="#263238"/>
  <path d="M66.9634 33.2381C66.9406 33.1605 67.7437 32.8411 69.0533 32.3848C69.3864 32.2753 69.6967 32.143 69.7058 31.8966C69.6545 31.5369 69.4954 31.2012 69.2495 30.9337L67.6889 28.5472C65.4986 25.1386 63.8377 22.3094 63.9791 22.2227C64.1206 22.136 66.0006 24.8283 68.1863 28.2324L69.7104 30.6417C70.0091 31.0107 70.1704 31.472 70.1667 31.9467C70.1426 32.0774 70.089 32.2009 70.0099 32.3076C69.9308 32.4144 69.8284 32.5017 69.7104 32.5628C69.5327 32.6546 69.3441 32.7236 69.1491 32.7681C67.8258 33.1286 66.9862 33.3111 66.9634 33.2381Z" fill="#263238"/>
  <path d="M71.2558 48.8649C66.714 49.8945 61.9759 49.6465 57.5664 48.1484C57.5664 48.1484 62.1295 54.1398 71.6345 51.1783L71.2558 48.8649Z" fill="#EB996E"/>
  <path d="M67.0798 36.5758C66.7573 36.3098 66.3722 36.1303 65.961 36.0545C65.5498 35.9786 65.1261 36.0089 64.7298 36.1423C64.4398 36.23 64.1709 36.376 63.9394 36.5714C63.7079 36.7667 63.5188 37.0074 63.3837 37.2785C63.251 37.5386 63.2016 37.8332 63.2425 38.1223C63.2833 38.4113 63.4123 38.6808 63.6119 38.8939C63.8752 39.0842 64.1888 39.1927 64.5135 39.2056C64.8381 39.2186 65.1594 39.1356 65.4371 38.9669C66.0211 38.6133 66.5296 38.1481 66.9338 37.5979C67.0591 37.4647 67.1595 37.3102 67.2304 37.1416C67.2647 37.0566 67.2725 36.9633 67.253 36.8738C67.2335 36.7843 67.1874 36.7027 67.1209 36.6397" fill="#FF725E"/>
  <path d="M63.2158 34.992C63.4348 34.9327 63.7451 36.3837 65.2053 37.1549C66.6655 37.9261 68.1759 37.4333 68.2306 37.6112C68.2717 37.6979 67.9477 37.9672 67.2952 38.1223C66.4472 38.3156 65.5581 38.2024 64.7855 37.8029C64.0442 37.4225 63.4809 36.7675 63.2158 35.9776C63.0424 35.3981 63.1154 35.0057 63.2158 34.992Z" fill="#263238"/>
  <path d="M47.7069 29.0645C46.6202 29.0621 45.5542 29.3606 44.6268 29.9269C43.7038 30.5032 43.0474 31.4223 42.8015 32.4822C42.609 33.559 42.8342 34.6687 43.4312 35.5852C44.0275 36.4928 44.8196 37.2552 45.7493 37.8165C46.3866 38.2657 47.1218 38.5567 47.8939 38.6653C48.2804 38.717 48.6737 38.672 49.0385 38.5342C49.4033 38.3964 49.7281 38.1702 49.9839 37.8758" fill="#FFBE9D"/>
  <path d="M48.4436 35.4735C48.5714 35.4735 48.252 36.2082 47.2526 36.1534C46.7118 36.0859 46.2196 35.807 45.8837 35.3777C45.4868 34.9041 45.1875 34.3566 45.003 33.7669C44.7903 33.1426 44.8081 32.4627 45.0532 31.8504C45.1548 31.5894 45.315 31.3553 45.5215 31.1662C45.7281 30.9771 45.9753 30.8381 46.2442 30.7598C47.2161 30.5317 47.6588 31.1431 47.5538 31.1842C47.4489 31.2253 47.0382 31.0108 46.4358 31.2983C45.8335 31.5857 45.4228 32.5121 45.7788 33.5296C46.1347 34.5472 46.737 35.4598 47.3576 35.583C47.9782 35.7062 48.3797 35.4005 48.4436 35.4735Z" fill="#EB996E"/>
  <path d="M68.5202 3.32878C69.225 4.71536 69.4619 6.29288 69.1954 7.82531C68.9289 9.35773 68.1733 10.7627 67.0418 11.8299C64.7237 13.9152 61.3653 14.2118 58.3719 15.0834C55.3785 15.9549 52.1706 18.1589 52.3075 21.2755C52.3896 23.1647 53.7312 24.9808 53.2475 26.806C52.6862 28.9461 49.9529 29.8588 49.1817 31.9304C47.9451 35.2615 52.4718 38.2595 52.271 41.805C52.1523 43.9086 50.3727 45.6243 50.1765 47.7371C49.8936 50.7213 52.8231 53.8927 51.1941 56.407C49.9438 58.3417 47.0325 58.0634 44.897 57.2238C42.7614 56.3842 40.4251 55.1886 38.285 56.0282C36.9982 56.5302 36.0902 57.6801 34.9448 58.4558C33.8989 59.1657 32.6659 59.5494 31.4018 59.5582C30.1378 59.5671 28.8995 59.2007 27.8437 58.5055C26.788 57.8103 25.9622 56.8175 25.4709 55.6528C24.9797 54.4881 24.845 53.2038 25.0839 51.9625C25.4307 50.1373 26.535 48.5721 27.4248 46.9431C28.3146 45.314 29.0219 43.4112 28.488 41.6362C28.0728 40.2672 27.005 39.236 26.1562 38.0952C25.3075 36.9544 24.6459 35.4531 25.1934 34.1435C26.1517 31.8391 29.825 32.0399 31.1574 29.9318C32.9827 27.0342 28.7481 23.3472 29.8341 20.0982C31.0662 16.4204 37.5914 17.0775 38.8326 13.3996C39.2889 12.0626 38.8326 10.5887 38.9558 9.18326C39.2798 5.98908 42.6519 3.91286 45.8324 3.36072C49.0129 2.80859 52.3349 3.21927 55.456 2.39791C57.1626 1.94159 58.7597 1.13392 60.439 0.572658C62.1182 0.0113943 63.9799 -0.266958 65.6409 0.349063C67.3019 0.965084 68.6298 2.70363 68.2967 4.45587" fill="#263238"/>
  <path d="M67.0855 10.1866C68.009 11.7848 69.2862 13.1503 70.819 14.1785C72.3519 15.2067 74.0998 15.8704 75.9288 16.1187C75.8695 13.6729 75.7417 11.2088 75.0801 8.85876C74.4184 6.50875 73.1773 4.23176 71.2608 2.73962C69.3443 1.24748 66.6338 0.626892 64.3613 1.5167" fill="#263238"/>
  <path d="M78.8309 57.0867C79.6568 57.1962 84.2747 84.2829 66.5469 87.29C49.7683 90.142 44.5801 62.3115 44.5801 62.3115C44.5801 62.3115 55.8829 54.0203 78.8309 57.0867Z" fill="#FFBE9D"/>
  <path d="M68.6787 20.0026C68.7836 20.1988 69.6962 19.9068 70.8325 19.779C71.9687 19.6512 72.9178 19.7151 72.9726 19.5006C73.0273 19.2862 72.0599 18.8481 70.7412 19.0033C69.4225 19.1584 68.5737 19.8474 68.6787 20.0026Z" fill="#263238"/>
  <path d="M55.1253 22.1029C55.1664 22.0664 55.1619 21.9888 55.1253 21.8656V22.071C55.7806 21.738 56.4729 21.4837 57.1879 21.3135C58.4473 21.0397 59.5151 21.3409 59.6018 21.1355C59.6383 21.0397 59.4101 20.8252 58.9447 20.6792C58.3292 20.4696 57.6682 20.4318 57.0327 20.5697C56.6122 20.6339 56.2092 20.7832 55.8483 21.0083C55.4874 21.2335 55.1762 21.5298 54.9337 21.8793L54.8516 22.0436L54.92 22.0801C55.0113 22.1303 55.0888 22.1303 55.1253 22.1029Z" fill="#263238"/>
  <path d="M47.4708 21.3148C46.436 21.3275 45.4018 21.2619 44.377 21.1186C43.345 21.0553 42.3196 20.9104 41.3105 20.6851C42.3453 20.6726 43.3795 20.7382 44.4043 20.8813C45.436 20.9482 46.461 21.0931 47.4708 21.3148Z" fill="#FF725E"/>
  <path d="M45.9682 23.0429C45.1997 23.2104 44.4094 23.2535 43.6273 23.1707C42.8424 23.1688 42.0628 23.0409 41.3184 22.7919C41.3184 22.7281 42.3633 22.865 43.641 22.9334C44.9187 23.0018 45.9636 22.9699 45.9682 23.0429Z" fill="#FF725E"/>
  <path d="M68.6725 8.85742C68.6542 8.9552 68.6235 9.05026 68.5812 9.14033C68.4698 9.4041 68.3156 9.64769 68.1249 9.86131C67.3632 10.6051 66.3586 11.049 65.2958 11.1116C64.5747 11.1922 63.8463 11.18 63.1283 11.0751C62.3572 10.9793 61.5404 10.8378 60.6825 10.7739C59.7914 10.6726 58.8889 10.7708 58.0404 11.0614C57.1573 11.4426 56.3941 12.056 55.8319 12.8365C55.2067 13.6122 54.682 14.4427 54.066 15.1773C53.7624 15.5404 53.4247 15.8735 53.0575 16.1721C52.6967 16.4508 52.3009 16.6809 51.8802 16.8566C51.1005 17.1465 50.2932 17.356 49.4709 17.4817C48.7662 17.5896 48.0718 17.756 47.3947 17.9791C46.4136 18.287 45.5741 18.934 45.0264 19.8043C44.8573 20.1407 44.7535 20.5062 44.7207 20.8812C44.7077 20.7828 44.7077 20.6831 44.7207 20.5846C44.7496 20.2993 44.8284 20.0213 44.9534 19.7633C45.4815 18.836 46.3328 18.1359 47.3445 17.7966C48.028 17.5602 48.7301 17.3816 49.4435 17.2627C50.2498 17.1335 51.0404 16.921 51.8027 16.6284C52.6259 16.2709 53.3461 15.7123 53.8971 15.0039C54.4995 14.2875 55.0197 13.4525 55.6539 12.6631C56.2481 11.8588 57.047 11.2285 57.9674 10.8378C58.8474 10.54 59.7827 10.4418 60.7053 10.5503C62.453 10.7055 63.9816 11.1207 65.2684 10.9428C66.3052 10.9075 67.296 10.5067 68.0656 9.81111C68.3162 9.52666 68.521 9.2049 68.6725 8.85742Z" fill="#455A64"/>
  <path d="M30.5928 58.8716C30.7306 58.8425 30.8662 58.8044 30.999 58.7575C31.3666 58.5888 31.6568 58.2872 31.8112 57.9133C32.0647 57.3226 32.0778 56.6563 31.8477 56.0561C31.6287 55.3443 31.2043 54.5868 30.8803 53.6833C30.0477 51.5776 29.8217 49.2807 30.2278 47.0531C30.5053 45.7422 31.0763 44.5113 31.8979 43.4528C32.3388 42.8974 32.8548 42.4059 33.4311 41.9926C34.0307 41.5837 34.6772 41.2482 35.3567 40.9933C36.0214 40.7561 36.6392 40.4039 37.182 39.9529C37.4228 39.7233 37.6105 39.4438 37.7319 39.134C37.8533 38.8242 37.9054 38.4917 37.8847 38.1596C37.8071 36.8317 37.0816 35.6134 37.1044 34.2992C37.117 33.6608 37.2829 33.0348 37.5881 32.4739C37.8714 31.9589 38.2212 31.4833 38.6285 31.0594C39.3639 30.3194 40.1474 29.6289 40.9739 28.9923C42.4341 27.7876 43.3422 26.478 43.584 25.4467C43.7083 24.9124 43.7083 24.3566 43.584 23.8223C43.6019 23.855 43.6143 23.8905 43.6205 23.9272C43.6205 23.9957 43.6707 24.1006 43.6981 24.2375C43.7646 24.647 43.7506 25.0654 43.6571 25.4696C43.5008 26.1069 43.2201 26.707 42.8311 27.2355C42.3232 27.9333 41.7317 28.5662 41.0698 29.12C40.2571 29.7612 39.486 30.4531 38.7608 31.1917C38.369 31.6031 38.0316 32.0632 37.7569 32.5606C37.4717 33.0886 37.3153 33.6765 37.3006 34.2764C37.3239 34.911 37.4424 35.5386 37.652 36.1381C37.8815 36.7811 38.0346 37.4489 38.1083 38.1276C38.1324 38.4934 38.0758 38.8599 37.9426 39.2014C37.8093 39.5428 37.6026 39.8508 37.3371 40.1035C36.7754 40.575 36.1341 40.9428 35.4434 41.1895C34.7804 41.4537 34.1509 41.7952 33.568 42.2071C33.0091 42.6075 32.5085 43.0836 32.0804 43.6216C31.278 44.6502 30.7181 45.8465 30.4423 47.1216C30.0371 49.3098 30.2424 51.5674 31.0355 53.6468C31.3458 54.5594 31.761 55.3032 31.9755 56.0424C32.0794 56.3855 32.1286 56.7427 32.1215 57.1011C32.1075 57.4053 32.0314 57.7035 31.8979 57.9772C31.7249 58.3632 31.4093 58.6673 31.0172 58.8259C30.8813 58.8745 30.7359 58.8901 30.5928 58.8716Z" fill="#455A64"/>
</svg>